<svg width="49" height="49" viewBox="0 0 49 49" fill="none" xmlns="http://www.w3.org/2000/svg">
<path d="M39.0618 31.4613C38.4902 30.4787 37.5527 29.7624 36.4543 29.4691C35.356 29.1758 34.1862 29.3294 33.2008 29.8963C32.5281 30.2836 31.9735 30.8466 31.5961 31.525C31.2188 32.2033 31.0331 32.9715 31.0588 33.7473L13.6488 43.7613L13.6368 43.7683C13.2058 44.0393 13.0968 44.0053 12.6498 43.7523L4.60684 39.1263L4.59384 39.1203C4.14284 38.8833 4.11684 38.7723 4.11484 38.2603V28.9943C4.09484 28.4863 4.17884 28.4093 4.62184 28.1513L10.5598 24.7353V20.0133L2.55184 24.6183C1.74004 25.0337 1.06705 25.677 0.615359 26.4691C0.163665 27.2613 -0.047121 28.1681 0.00883319 29.0783V38.2783C-0.0356867 39.1894 0.1872 40.0936 0.650049 40.8797C1.1129 41.6657 1.79551 42.2993 2.61384 42.7023L10.6138 47.3023C11.3831 47.7965 12.2794 48.0562 13.1937 48.0498C14.108 48.0434 15.0006 47.7712 15.7628 47.2663L33.1488 37.2663C33.8053 37.6551 34.5532 37.8628 35.3162 37.8682C36.0791 37.8736 36.8299 37.6767 37.4918 37.2973C37.9787 37.0175 38.4056 36.6444 38.7481 36.1994C39.0906 35.7544 39.342 35.2463 39.4878 34.704C39.6337 34.1617 39.6711 33.596 39.598 33.0392C39.5249 32.4824 39.3427 31.9456 39.0618 31.4593" fill="white"/>
<path d="M45.8558 24.4904L28.4678 14.4904C28.4781 13.729 28.2846 12.9788 27.9075 12.3173C27.5304 11.6559 26.9833 11.1073 26.3228 10.7284C25.3372 10.163 24.168 10.0102 23.0702 10.3031C21.9723 10.5961 21.0348 11.3111 20.4618 12.2924C20.1807 12.779 19.9985 13.3163 19.9255 13.8735C19.8525 14.4307 19.8903 14.9968 20.0366 15.5394C20.1829 16.082 20.435 16.5904 20.7782 17.0353C21.1215 17.4803 21.5492 17.8531 22.0368 18.1324C22.7118 18.5195 23.479 18.7168 24.257 18.7032C25.035 18.6897 25.7948 18.4658 26.4558 18.0554L43.8628 28.0664L43.8758 28.0734C44.3268 28.3094 44.3518 28.4204 44.3548 28.9324V38.1964C44.3748 38.7034 44.2908 38.7804 43.8478 39.0394L35.8038 43.6614L35.7918 43.6684C35.3608 43.9394 35.2518 43.9064 34.8048 43.6524L28.9258 40.2724L24.8258 42.6384L32.7658 47.2034C33.535 47.6976 34.4313 47.9574 35.3455 47.9512C36.2598 47.945 37.1525 47.673 37.9148 47.1684L45.9148 42.5684C46.7267 42.1535 47.3999 41.5107 47.8518 40.7188C48.3037 39.927 48.5147 39.0204 48.4588 38.1104V28.9104C48.5035 27.9994 48.2807 27.0952 47.8179 26.3093C47.355 25.5233 46.6723 24.89 45.8538 24.4874" fill="white"/>
<path d="M32.7759 8.93233C33.2269 9.16833 33.2519 9.27933 33.2549 9.79133V16.6153L37.3549 18.9833V9.77133C37.3998 8.86091 37.1776 7.95722 36.7156 7.1714C36.2537 6.38559 35.5722 5.75192 34.7549 5.34833L26.7639 0.748334C25.9957 0.25373 25.1001 -0.00627851 24.1865 0.000115141C23.2729 0.00650879 22.381 0.279026 21.6199 0.784333L13.6279 5.38433C12.8163 5.79973 12.1436 6.44284 11.6921 7.23485C11.2406 8.02686 11.0299 8.93338 11.0859 9.84333V29.8373C10.4199 30.2067 9.86477 30.7474 9.47796 31.4033C9.09116 32.0593 8.88673 32.8068 8.88586 33.5683C8.88678 34.1306 8.9985 34.6873 9.21462 35.2064C9.43075 35.7255 9.74705 36.1969 10.1455 36.5938C10.5439 36.9906 11.0165 37.305 11.5365 37.5191C12.0565 37.7331 12.6136 37.8426 13.1759 37.8413C14.3102 37.8427 15.3987 37.3937 16.2023 36.5931C17.0059 35.7925 17.4589 34.7057 17.4619 33.5713C17.4611 32.7952 17.249 32.034 16.8484 31.3693C16.4478 30.7046 15.8737 30.1615 15.1879 29.7983V9.75933C15.1679 9.25233 15.2509 9.17533 15.6949 8.91633L23.7309 4.29133L23.7429 4.28333C24.1739 4.01233 24.2829 4.04633 24.7289 4.29933L32.7649 8.92433L32.7759 8.93233Z" fill="white"/>
</svg>
