<svg width="27" height="27" viewBox="0 0 27 27" fill="none" xmlns="http://www.w3.org/2000/svg">
<path d="M14.6699 5.6025C15.2639 5.6025 15.7499 5.1165 15.7499 4.518V3.33C15.7499 2.736 15.2639 2.25 14.6699 2.25H7.84343C7.24943 2.25 6.76343 2.736 6.76343 3.33V4.518C6.76343 5.1165 7.24943 5.6025 7.84343 5.6025H14.6699Z" fill="#AEB2B8"/>
<path d="M11.1284 18.342C11.7809 18.4815 12.3479 18.972 12.5954 19.2195C13.0004 19.6245 13.4054 20.205 13.5494 20.79L21.8294 12.51L19.3949 10.08L11.1284 18.342Z" fill="#AEB2B8"/>
<path d="M10.728 19.206L10.044 21.2985C9.99455 21.4605 10.035 21.636 10.1565 21.7575C10.242 21.843 10.3545 21.888 10.4715 21.888C10.521 21.888 10.566 21.879 10.611 21.8655L12.7035 21.1815C12.69 20.8215 12.402 20.295 11.961 19.854C11.529 19.4265 11.0295 19.1655 10.728 19.206Z" fill="#AEB2B8"/>
<path d="M20.9115 8.56347L20.0295 9.44547L22.464 11.88L23.346 10.998C23.67 10.6695 23.85 10.2375 23.85 9.77847C23.85 9.31947 23.67 8.88747 23.346 8.56347C22.6935 7.91097 21.5595 7.91097 20.9115 8.56347Z" fill="#AEB2B8"/>
<path d="M5.3639 3.47398C4.1444 3.47398 3.1499 4.46848 3.1499 5.68798V22.536C3.1499 23.76 4.1444 24.75 5.3639 24.75H17.1494C18.3734 24.75 19.3679 23.76 19.3679 22.536V16.245L14.0894 21.519C13.9364 21.6675 13.7609 21.78 13.5629 21.843L10.8854 22.716C10.7279 22.7655 10.5974 22.7835 10.4669 22.7835C10.1069 22.7835 9.7694 22.644 9.5174 22.392C9.1619 22.0365 9.0314 21.5145 9.1799 21.033L10.0574 18.3465C10.1249 18.1395 10.2374 17.955 10.3859 17.8065L19.3679 8.82898V5.68348C19.3679 4.46398 18.3734 3.46948 17.1494 3.46948H16.6499V4.51348C16.6499 5.60698 15.7634 6.49798 14.6699 6.49798H7.8434C6.7499 6.49798 5.8634 5.60698 5.8634 4.51348V3.47398H5.3639ZM12.2489 13.428H6.0929C5.8454 13.428 5.6429 13.2255 5.6429 12.978C5.6429 12.7305 5.8454 12.528 6.0929 12.528H12.2489C12.4964 12.528 12.6989 12.7305 12.6989 12.978C12.6989 13.2255 12.4964 13.428 12.2489 13.428ZM16.4204 10.818H6.0929C5.8454 10.818 5.6429 10.6155 5.6429 10.368C5.6429 10.1205 5.8454 9.91798 6.0929 9.91798H16.4204C16.6679 9.91798 16.8704 10.1205 16.8704 10.368C16.8704 10.6155 16.6679 10.818 16.4204 10.818ZM6.0929 7.30798H16.4204C16.6679 7.30798 16.8704 7.51048 16.8704 7.75798C16.8704 8.00548 16.6679 8.20798 16.4204 8.20798H6.0929C5.8454 8.20798 5.6429 8.00548 5.6429 7.75798C5.6429 7.51048 5.8454 7.30798 6.0929 7.30798Z" fill="#AEB2B8"/>
</svg>
